<?xml version="1.0" encoding="UTF-8" standalone="no"?>
<svg
   viewBox="0 0 24 24"
   version="1.1"
   id="svg1"
   xmlns="http://www.w3.org/2000/svg"
   xmlns:svg="http://www.w3.org/2000/svg">
  <defs
     id="defs1" />
  <path
     d="M 12,0.24 A 12,12.000211 0 0 0 0,12.240211 C 0,17.544305 3.444,22.044384 8.208,23.640412 8.808,23.736414 9,23.364407 9,23.040402 9,22.764397 9,22.008383 9,21.012366 5.676,21.732379 4.968,19.404338 4.968,19.404338 4.416,18.012313 3.636,17.640307 3.636,17.640307 2.544,16.896293 3.72,16.920294 3.72,16.920294 c 1.2,0.084 1.836,1.236022 1.836,1.236022 1.044,1.824032 2.808,1.284022 3.492,0.996017 C 9.156,18.372319 9.468,17.84431 9.804,17.544305 7.14,17.2443 4.344,16.212281 4.344,11.640201 4.344,10.308177 4.8,9.2401585 5.58,8.3881435 5.46,8.0881383 5.04,6.8401163 5.7,5.2200877 c 0,0 1.008,-0.3240057 3.3,1.2240216 0.948,-0.2640047 1.98,-0.396007 3,-0.396007 1.02,0 2.052,0.1320023 3,0.396007 2.292,-1.5480273 3.3,-1.2240216 3.3,-1.2240216 0.66,1.6200286 0.24,2.8680506 0.12,3.1680558 0.78,0.852015 1.236,1.9200335 1.236,3.2520575 0,4.584081 -2.808,5.592098 -5.484,5.892104 0.432,0.372006 0.828,1.104019 0.828,2.220039 0,1.608028 0,2.904051 0,3.288058 0,0.324005 0.192,0.708012 0.804,0.60001 C 20.568,22.032384 24,17.544305 24,12.240211 A 12,12.000211 0 0 0 12,0.24 Z"
     id="path1"
     style="stroke-width:1.20001" />
</svg>
